# xmcd CD database file
#
# Track frame offsets:
#	150
#	16375
#	28750
#	46078
#	55804
#	67821
#	78914
#	91804
#	107427
#	117235
#	141090
#	164953
#	175144
#	191281
#	215214
#	239468
#	258274
#
# Disc length: 3640 seconds
#
# Revision: 0
# Processed by: cddbd v1.5.2PL0 Copyright (c) Steve Scherf et al.
# Submitted via: CDex 1.70beta2
#
DISCID=e20e3611
DTITLE=Various Artist - LightJazz 2
DYEAR=2009
DGENRE=Jazz
TTITLE0=Natalie Cole - Smile
TTITLE1=Ella Fitzgerald - The Very Thought Of You
TTITLE2=Bobby McFerrin - Don't Worry Be Happy
TTITLE3=Peggy Lee - Things Are Swingin'
TTITLE4=Dean Martin - Sway
TTITLE5=Dinah Washington - What A Difference A Day Makes
TTITLE6=Billie Holliday - The Ole Devil Called Love
TTITLE7=Lisa Ono - Quizas Quizas Quizas
TTITLE8=Wanda De Sah and Sergio Mendes - So Nice
TTITLE9=Silje Nergaard - Bewitched, Bothered and Bewildered
TTITLE10=Eliane Elias - The Girl From Ipanema
TTITLE11=Chet Baker - My Funny Valentine
TTITLE12=Laura Fygi - Drean A Little Dream
TTITLE13=Karrin Allyson - Night And Day
TTITLE14=Stacey Kent - The Ice Hotel
TTITLE15=Stan Getz - Corcovado (Quiet Nights Of Quiet Stars)
TTITLE16=Anne Murray - Over The Rainbow
EXTD=YEAR: 2009
EXTT0=
EXTT1=
EXTT2=
EXTT3=
EXTT4=
EXTT5=
EXTT6=
EXTT7=
EXTT8=
EXTT9=
EXTT10=
EXTT11=
EXTT12=
EXTT13=
EXTT14=
EXTT15=
EXTT16=
PLAYORDER=
